<mxfile host="app.diagrams.net" modified="2025-09-04T19:08:01Z" agent="Python/3" version="20.8.3" editor="www.draw.io">
  <diagram id="airbnb-sql" name="ERD">
    <mxGraphModel dx="1200" dy="800" grid="1" gridSize="10" guides="1" tooltips="1" connect="1" arrows="1" fold="1" page="1" pageScale="1" pageWidth="1600" pageHeight="1000" math="0" shadow="0">
      <root>
        <mxCell id="0"/>
        <mxCell id="1" parent="0"/>
        
      <mxCell id="users" value="users\n- id PK\n- email unique" style="rounded=1;whiteSpace=wrap;html=1;fillColor=#fff2cc;strokeColor=#d6b656;" vertex="1" parent="1">
        <mxGeometry x="60" y="120" width="260" height="100" as="geometry"/>
      </mxCell>
      </root>
    </mxGraphModel>
  </diagram>
</mxfile>